<svg version="1.1" id="Layer_1" xmlns="http://www.w3.org/2000/svg" xmlns:xlink="http://www.w3.org/1999/xlink" x="0px" y="0px"
	 width="100%" viewBox="0 0 1024 672" enable-background="new 0 0 1024 672" xml:space="preserve">
<path fill="#000000" opacity="1.000000" stroke="none" 
	d="
M362.659363,367.609009 
	C386.100525,364.862946 409.175323,363.258881 432.253448,361.584442 
	C456.342346,359.836609 480.459320,358.744781 504.580658,357.893829 
	C542.873352,356.542999 581.182739,355.398560 619.508911,356.087769 
	C662.643921,356.863434 705.783875,357.707733 748.866211,360.050171 
	C784.598694,361.992950 820.296204,364.558502 855.856934,368.692902 
	C859.128235,369.073273 864.067078,368.616516 863.529907,373.607452 
	C862.953552,378.963104 858.115112,377.228394 854.655334,376.921326 
	C841.894958,375.788635 829.160522,374.329742 816.387634,373.379913 
	C792.487305,371.602661 768.576050,369.941254 744.651794,368.528564 
	C728.195068,367.556854 711.714233,366.901245 695.234924,366.425415 
	C645.591492,364.992096 595.930603,364.784973 546.278809,365.500977 
	C518.309692,365.904266 490.335876,367.014587 462.400970,368.498932 
	C427.171143,370.370911 391.963623,372.878540 356.869171,376.492065 
	C317.813721,380.513519 278.885620,385.599976 240.341324,393.311310 
	C235.690948,394.241669 232.794266,396.213684 230.367493,400.325623 
	C220.349152,417.300720 209.542999,433.725342 193.683624,446.041016 
	C184.725342,452.997650 174.856003,457.908264 163.522537,459.699005 
	C158.785904,460.447388 154.187180,460.024567 149.693329,458.701843 
	C135.673050,454.575195 131.140182,440.049500 140.081299,427.387756 
	C146.726761,417.976959 156.428070,412.318420 166.540207,407.443024 
	C183.584396,399.225494 201.689713,394.068329 220.005112,389.645050 
	C223.859970,388.714050 226.366302,386.866058 228.327499,383.368866 
	C251.143967,342.682922 273.862762,301.945190 295.485138,260.606476 
	C296.566284,258.539520 297.544189,256.406769 298.775818,254.432983 
	C300.919159,250.998215 305.195129,249.698380 308.282349,251.583206 
	C312.221436,253.988129 311.608307,257.179260 309.674530,260.633484 
	C302.296722,273.812195 294.980621,287.025482 287.909637,300.430481 
	C295.342255,294.998505 302.373810,289.188416 310.805542,285.448456 
	C316.364685,282.982635 322.011169,281.311035 328.190338,281.667938 
	C338.535919,282.265503 344.953674,290.511566 342.639648,300.619019 
	C340.508331,309.928345 335.335327,317.643005 329.644623,325.549469 
	C333.470245,324.153717 337.397522,322.984467 341.103394,321.321808 
	C354.848389,315.154938 367.614685,307.351807 379.354340,297.889557 
	C383.010590,294.942596 386.413330,291.777252 388.582977,287.514191 
	C389.607666,285.500732 391.075378,283.964630 393.269684,283.275177 
	C396.113861,282.381531 398.987427,282.151611 401.100159,284.680969 
	C403.267334,287.275482 402.482544,290.008545 400.684052,292.486237 
	C395.110443,300.164795 388.789001,307.312531 384.159698,315.658905 
	C382.789062,318.130066 381.476288,320.652039 380.388855,323.255920 
	C379.436218,325.536926 378.284790,328.125153 380.309143,330.309235 
	C382.287415,332.443573 384.871307,331.656342 387.339417,330.985291 
	C392.358795,329.620575 397.049225,327.482635 401.609436,325.042664 
	C417.402222,316.592560 431.797394,306.123291 445.483002,294.627777 
	C447.695984,292.768921 449.235596,290.406250 450.794281,288.041290 
	C452.094055,286.069183 453.523651,284.295380 455.891113,283.461456 
	C458.581879,282.513672 461.166046,282.199097 463.243622,284.576233 
	C465.171204,286.781647 464.781036,289.334412 463.435303,291.572357 
	C460.011475,297.266266 456.392120,302.842590 452.271790,309.385712 
	C457.809540,306.348602 461.233856,302.274353 465.321320,299.089996 
	C473.091278,293.036774 480.777466,286.908417 490.157227,283.449860 
	C495.834137,281.356598 501.600250,280.072937 506.469360,285.021027 
	C510.023071,288.632385 509.329681,294.547668 504.782715,301.613068 
	C500.277008,308.614288 495.537354,315.464691 491.005554,322.449554 
	C489.656250,324.529205 488.085541,326.970032 489.744141,329.396576 
	C491.603241,332.116455 494.645050,331.111664 497.126190,330.484863 
	C508.140259,327.702454 517.504456,321.499542 526.887634,315.475800 
	C533.415283,311.285126 539.354065,306.644196 544.554871,300.432617 
	C554.640198,288.387360 567.410583,279.958069 584.236450,280.721588 
	C588.554810,280.917511 592.602722,282.170319 594.527283,286.546692 
	C596.101379,290.125916 595.642578,293.712036 593.422546,296.997772 
	C592.463806,298.416809 591.237488,299.528320 589.555725,299.996399 
	C587.855164,300.469788 586.244690,300.319458 584.918152,298.998199 
	C583.668091,297.753143 583.921204,296.386749 584.395996,294.844971 
	C585.888916,289.997040 584.734497,288.746002 579.553650,289.231476 
	C577.500305,289.423889 575.703796,290.241516 573.918457,291.145721 
	C562.331360,297.013763 553.775330,305.888763 548.574951,317.730652 
	C544.559570,326.874115 548.155212,331.959717 558.028259,331.942413 
	C567.634094,331.925568 576.243286,328.342102 584.751892,324.460144 
	C592.813049,320.782318 599.962891,315.503448 607.648193,311.187317 
	C621.684875,303.304230 628.944458,290.387543 635.658325,276.560974 
	C646.354980,254.532242 657.599304,232.734665 671.829590,212.706100 
	C677.996887,204.025909 684.591797,195.566940 694.090393,190.070312 
	C694.954834,189.570068 695.795715,189.010025 696.705933,188.610931 
	C701.095276,186.686386 705.677063,185.063156 709.898499,188.562836 
	C714.218323,192.144058 713.979553,197.128967 712.616882,201.944931 
	C709.060425,214.514114 702.012756,225.259430 694.177185,235.458862 
	C677.811218,256.762268 659.231262,276.134064 640.916443,295.727295 
	C637.591919,299.283875 635.316467,303.394775 633.202759,308.032623 
	C636.112671,308.952728 637.146973,306.808746 638.459290,305.627441 
	C646.779114,298.137787 655.442627,291.145386 665.402100,285.891663 
	C670.962463,282.958527 676.736572,281.191711 683.124573,281.613525 
	C690.406006,282.094360 694.490662,287.965607 692.038025,294.917664 
	C690.468567,299.366364 687.545288,303.074982 684.796204,306.838165 
	C680.863708,312.221252 676.842346,317.540802 673.672241,323.429718 
	C672.642151,325.343384 671.417297,327.428375 672.907959,329.504364 
	C674.405396,331.589783 676.808472,331.003876 678.927185,330.711273 
	C684.984741,329.874725 690.289001,326.946564 695.667114,324.340790 
	C705.729187,319.465607 715.146606,313.449371 724.525391,307.395844 
	C726.021790,306.429993 727.292297,305.006653 728.423157,303.598785 
	C738.422607,291.149750 751.275330,283.430481 766.875000,280.208618 
	C770.346985,279.491516 773.836853,279.485016 777.310608,280.121765 
	C788.002014,282.081696 791.072693,289.002136 785.311462,298.079803 
	C790.535095,303.342957 790.644226,304.444183 785.938660,309.997192 
	C782.255859,314.343109 779.020630,318.965027 776.517883,324.085022 
	C775.636536,325.888000 774.545654,327.831329 776.007019,329.706055 
	C777.442871,331.547974 779.653503,331.131683 781.595764,330.743195 
	C786.514038,329.759399 791.203430,328.039246 795.763855,325.963684 
	C804.890625,321.809906 813.486389,316.732208 821.768188,311.096619 
	C823.693359,309.786591 825.703918,308.595398 827.722290,307.431244 
	C829.379395,306.475464 830.980652,306.662598 832.170471,308.225494 
	C833.366882,309.796967 832.947693,311.422089 831.813110,312.812897 
	C831.086975,313.703156 830.181519,314.493988 829.231201,315.147247 
	C815.595215,324.521301 801.502869,333.021698 785.455383,337.718811 
	C784.018738,338.139313 782.566895,338.533295 781.098206,338.814972 
	C769.543762,341.031097 763.635986,336.610779 762.654175,324.637878 
	C756.721008,328.623871 751.246155,332.986847 744.863281,335.852509 
	C740.901001,337.631500 736.940247,339.307190 732.460571,339.331238 
	C723.371033,339.379974 718.579346,334.636749 718.614441,325.544312 
	C718.619995,324.113892 719.103943,322.590607 718.062256,320.946411 
	C714.868347,321.676941 712.338196,323.586426 709.675659,325.170959 
	C699.914246,330.980072 689.967346,336.343475 678.721130,338.780151 
	C675.907532,339.389740 673.116760,339.493988 670.298706,338.897095 
	C661.071960,336.942902 657.506836,330.745209 660.722290,321.864075 
	C663.842163,313.246796 670.285278,306.702179 675.212891,299.211151 
	C676.823792,296.762329 679.193481,294.662415 679.017456,291.109680 
	C675.667908,289.321686 672.883240,291.420685 670.208557,292.649689 
	C659.161987,297.725464 650.011108,305.541626 641.203857,313.697540 
	C633.268066,321.046448 624.994202,328.076355 618.053528,336.451599 
	C616.870728,337.878845 615.431274,338.953339 613.477539,339.255188 
	C607.921753,340.113495 605.080505,336.942566 606.890930,331.642853 
	C607.694458,329.290527 608.905090,327.075500 609.957092,324.810272 
	C610.916687,322.743774 611.911621,320.693695 612.953125,318.505646 
	C610.256714,317.529968 609.036621,319.251831 607.597473,320.142242 
	C593.230652,329.031433 578.573853,337.196472 561.513977,339.791870 
	C556.645508,340.532532 551.866577,340.306000 547.169678,338.949127 
	C538.183838,336.353210 535.507996,332.465363 534.325439,320.297333 
	C530.847534,321.171143 528.084045,323.254486 525.224609,325.088135 
	C517.634949,329.954956 509.860809,334.431793 501.308044,337.447784 
	C497.319214,338.854370 493.277435,339.532349 489.053711,339.326477 
	C479.044556,338.838623 474.333771,332.046844 477.509308,322.566864 
	C479.720856,315.964691 484.165985,310.697937 488.016907,305.070892 
	C490.893616,300.867371 494.225159,296.905975 496.049286,291.679474 
	C492.818481,290.440796 490.511383,291.904327 488.233246,293.014404 
	C478.078674,297.962463 469.579895,305.267578 461.266754,312.695618 
	C452.831909,320.232422 444.134644,327.552582 437.059906,336.498688 
	C435.791626,338.102448 434.192017,339.199036 432.034180,339.453644 
	C426.663116,340.087341 423.557098,336.344391 425.839142,331.483612 
	C428.028778,326.819702 430.746857,322.403564 433.240997,317.883087 
	C434.017303,316.476074 435.213898,315.239319 435.032013,313.056213 
	C426.859039,318.201996 418.928040,323.300415 410.891327,328.226318 
	C402.623718,333.293732 394.034576,337.714508 384.370392,339.486206 
	C372.312653,341.696686 365.227844,333.983276 368.448090,322.166504 
	C369.227417,319.306641 370.342499,316.538269 371.633698,312.760956 
	C367.217560,315.303772 363.567902,317.412476 359.911499,319.509277 
	C346.811005,327.021912 333.022308,332.729858 318.059143,335.276276 
	C315.338898,335.739227 313.065277,337.079895 310.738464,338.356781 
	C302.977081,342.616028 294.792358,345.022278 285.837738,344.330444 
	C280.630829,343.928192 277.169647,341.425873 277.067200,337.841858 
	C276.964600,334.252563 280.239929,331.314819 285.407013,330.843872 
	C290.708160,330.360687 296.041840,330.008911 301.360718,330.016052 
	C305.643463,330.021790 309.178925,328.702087 312.186218,325.765076 
	C319.028168,319.083099 325.013000,311.770966 328.980316,302.966339 
	C330.683167,299.187225 332.070160,295.253632 328.869080,291.745941 
	C325.776917,288.357605 321.869843,289.375427 318.198578,290.886902 
	C299.941528,298.403290 285.139038,310.488220 274.515198,326.907623 
	C263.212128,344.376770 253.152588,362.650940 242.577148,380.589539 
	C242.015030,381.543030 241.129639,382.502289 242.120148,384.571136 
	C281.715759,376.974823 321.829224,371.339661 362.659363,367.609009 
M196.797318,404.397675 
	C186.962906,407.520660 177.330505,411.140839 168.140381,415.879303 
	C160.398285,419.871124 153.076401,424.439697 147.674774,431.449341 
	C144.472824,435.604431 142.737839,440.414093 145.180038,445.412903 
	C147.556931,450.278076 152.404678,451.388092 157.408539,451.695862 
	C162.899963,452.033600 167.923264,450.346039 172.743576,447.989594 
	C184.982025,442.006836 194.365204,432.662994 202.708939,422.161957 
	C208.452484,414.933502 213.715561,407.375366 218.579697,398.473114 
	C210.789627,400.070099 204.126984,401.941620 196.797318,404.397675 
M730.536987,328.107849 
	C732.281799,332.008575 735.338867,330.997253 738.174988,329.956879 
	C746.083923,327.055634 752.571777,321.757996 759.446167,317.107361 
	C767.195740,311.864594 773.301086,304.795502 780.180908,298.269470 
	C779.801758,297.435852 779.048523,296.325470 778.784607,295.108917 
	C777.312561,288.324524 775.711426,286.791626 769.047363,289.040192 
	C750.036987,295.454681 736.333435,307.551361 730.536987,328.107849 
M673.550049,231.962418 
	C666.746155,243.162033 660.387817,254.585144 654.776123,267.067291 
	C657.779663,266.990021 658.425110,265.455444 659.346497,264.370361 
	C665.271301,257.392914 671.365845,250.545059 676.996155,243.335587 
	C685.496338,232.451370 693.917053,221.465103 699.879822,208.891495 
	C701.467834,205.542923 703.499329,202.164276 701.999207,197.022964 
	C689.020325,206.097870 681.641724,218.856781 673.550049,231.962418 
z"/>
<path fill="#000000" opacity="1.000000" stroke="none" 
	d="
M562.981140,418.430084 
	C559.604919,424.224609 560.583618,427.433075 565.602661,427.553253 
	C567.500854,427.598724 570.021423,428.482086 571.083923,426.335693 
	C572.183655,424.113922 572.275940,421.500641 570.445374,419.318787 
	C569.917725,418.689850 569.247925,418.154144 569.502258,416.809204 
	C572.927917,415.241425 576.447937,415.432953 580.163757,416.824188 
	C576.162781,423.474213 576.247925,437.352997 580.459473,443.127350 
	C576.503662,444.504639 572.861694,444.712006 568.608337,443.008240 
	C571.729980,439.412018 573.419495,435.450439 570.396484,432.093506 
	C568.713989,430.225067 564.211792,430.224213 562.490356,432.041168 
	C559.439392,435.261505 561.035889,439.320953 563.583923,442.949249 
	C559.574951,444.916565 556.026245,444.236023 552.421692,443.434631 
	C555.959900,434.393951 555.733643,425.913971 552.859131,417.092651 
	C556.368408,414.766052 560.837219,415.029480 562.981140,418.430084 
z"/>
<path fill="#000000" opacity="1.000000" stroke="none" 
	d="
M476.208008,429.030090 
	C475.152771,428.060577 474.873688,426.677856 473.019562,426.563324 
	C472.400574,432.105286 470.912811,437.634033 475.602051,442.608154 
	C472.403839,444.890839 469.395813,444.304443 466.372101,443.316162 
	C470.114258,434.393921 469.732361,425.827240 466.509735,416.822571 
	C469.972412,415.168243 473.272491,415.199188 476.012299,419.070160 
	C479.065765,423.384338 482.275391,427.587952 486.023834,431.643402 
	C486.736328,426.689941 488.469482,421.751892 483.748810,417.408600 
	C487.278015,415.125092 490.385345,415.424347 493.894318,417.055847 
	C488.995239,423.135895 491.948151,430.021729 491.060394,436.412354 
	C490.712891,438.913849 492.280457,442.489105 489.196198,443.546234 
	C485.977570,444.649445 485.159821,440.773254 483.575317,438.878723 
	C481.018860,435.822052 478.789093,432.492126 476.208008,429.030090 
z"/>
<path fill="#000000" opacity="1.000000" stroke="none" 
	d="
M401.057739,434.718872 
	C400.546600,428.592163 402.324402,422.675262 398.780457,416.733093 
	C405.147247,415.430450 411.108276,414.964905 416.782043,417.875275 
	C419.975281,419.513245 420.636444,422.752167 420.104034,426.070618 
	C419.576355,429.359161 417.333527,431.306641 414.229309,432.157196 
	C405.670593,434.502350 405.121613,435.730164 409.848450,443.102814 
	C406.151062,444.663300 402.597015,444.472992 398.481171,443.144318 
	C400.080566,440.480408 401.603821,438.098236 401.057739,434.718872 
M413.957642,422.408966 
	C412.836212,420.089203 410.915283,418.327423 408.537170,419.702667 
	C405.833496,421.266144 407.204590,424.427124 407.207245,426.919617 
	C407.209198,428.734467 408.442078,429.554779 410.213867,429.183136 
	C412.958313,428.607452 414.494598,426.935120 414.454376,424.030212 
	C414.449951,423.712463 414.305267,423.396667 413.957642,422.408966 
z"/>
<path fill="#000000" opacity="1.000000" stroke="none" 
	d="
M513.559082,440.402527 
	C508.980957,434.107666 508.363220,427.805054 512.476685,421.550446 
	C516.422058,415.551392 522.395325,414.704865 528.800232,416.466339 
	C530.719055,416.994080 533.562866,415.150391 534.505249,418.028931 
	C535.307434,420.479004 535.430420,423.165070 533.433411,425.436035 
	C525.611877,418.648895 523.245056,417.870392 519.886597,420.863647 
	C516.407593,423.964294 515.590759,434.425049 519.017517,438.078644 
	C524.881775,444.331146 529.247131,438.952057 533.610168,435.320831 
	C536.041565,440.387421 535.279602,442.457336 530.638062,443.498749 
	C524.688232,444.833710 518.760498,445.597260 513.559082,440.402527 
z"/>
<path fill="#000000" opacity="1.000000" stroke="none" 
	d="
M615.463257,425.610168 
	C616.791748,428.883423 618.118591,431.750488 619.171570,434.714813 
	C620.225586,437.681976 621.620361,440.406647 624.466492,442.594238 
	C620.332520,444.968140 616.885193,443.992737 612.874878,443.539673 
	C614.011230,440.568665 615.964661,437.617096 612.560120,435.836487 
	C610.200867,434.602570 607.114014,434.426331 604.946472,436.028839 
	C602.335815,437.959015 603.224121,440.632874 605.991455,442.814117 
	C602.112000,444.513184 599.240723,444.696686 596.121033,442.843964 
	C601.412170,436.001434 603.065430,427.735443 606.550659,420.296478 
	C607.301697,418.693420 607.410339,416.324402 609.575195,416.136871 
	C612.145386,415.914276 612.443359,418.464569 613.247681,420.195892 
	C614.014832,421.847321 614.648926,423.560547 615.463257,425.610168 
M609.232849,425.527344 
	C607.139709,426.779633 607.178345,428.913177 606.698303,431.112366 
	C608.309509,431.724518 609.634277,432.156555 611.027039,431.020660 
	C611.478455,429.053802 610.255127,427.559204 609.232849,425.527344 
z"/>
<path fill="#000000" opacity="1.000000" stroke="none" 
	d="
M417.732422,247.186646 
	C421.115448,249.745926 421.743988,252.763092 420.411499,256.274506 
	C418.923035,260.196899 416.652740,263.443787 412.193787,264.147552 
	C408.329163,264.757538 405.664246,263.056824 404.866821,259.125000 
	C403.361938,251.704941 409.925507,245.404205 417.732422,247.186646 
z"/>
<path fill="#000000" opacity="1.000000" stroke="none" 
	d="
M445.341156,427.177795 
	C445.339874,430.134338 445.546143,432.643646 445.285950,435.103638 
	C444.961273,438.173492 446.005951,440.526489 449.256348,442.814697 
	C444.671600,444.677856 441.052399,444.477966 437.402313,443.293793 
	C441.144989,434.392273 440.499176,425.852081 437.732513,416.631714 
	C440.868896,415.353394 444.500946,415.477417 449.098328,417.036804 
	C445.126984,419.793457 445.095215,423.209808 445.341156,427.177795 
z"/>
</svg>