<svg version="1.1" id="Layer_1" xmlns="http://www.w3.org/2000/svg" xmlns:xlink="http://www.w3.org/1999/xlink" x="0px" y="0px"
	 width="100%" viewBox="0 0 1024 672" enable-background="new 0 0 1024 672" xml:space="preserve">
<path fill="#000000" opacity="1.000000" stroke="none" 
	d="
M346.531311,370.369873 
	C372.491119,367.932312 397.989075,365.464325 423.544800,363.495422 
	C510.198517,356.819275 596.983215,356.887177 683.773193,358.117188 
	C723.220337,358.676300 762.641541,360.824005 802.034668,363.376129 
	C831.271790,365.270264 860.420288,367.982666 889.571045,370.776123 
	C891.222839,370.934387 892.847900,371.353699 894.493591,371.596283 
	C897.272522,372.005951 898.663757,373.616791 898.443848,376.386322 
	C898.215027,379.267365 896.288086,380.513336 893.630188,380.295502 
	C884.510864,379.548126 875.409119,378.587585 866.290588,377.829590 
	C847.718628,376.285767 829.156616,374.558746 810.560486,373.384003 
	C781.324219,371.537170 752.067139,370.002991 722.810303,368.504761 
	C711.169373,367.908661 699.498901,367.761505 687.850525,367.499237 
	C653.703918,366.730469 619.547363,365.821503 585.386536,366.428314 
	C557.073425,366.931213 528.754639,367.431244 500.458466,368.475281 
	C475.505188,369.395996 450.541718,370.578766 425.649872,372.510742 
	C376.712769,376.308868 327.838928,380.921051 279.314728,388.500183 
	C260.745392,391.400604 242.311539,395.163483 223.800186,398.444397 
	C220.404770,399.046143 218.265244,400.750122 216.557800,403.768982 
	C207.927551,419.027771 198.615265,433.833466 185.932877,446.165863 
	C173.023315,458.719208 158.533234,468.388824 140.161011,470.863556 
	C133.121445,471.811768 126.515343,470.491882 120.470795,466.886658 
	C111.527176,461.552216 109.016090,449.884125 114.723923,439.506714 
	C119.424057,430.961395 126.740189,424.863861 134.900131,419.815887 
	C153.964569,408.022095 174.955353,400.974426 196.571594,395.820435 
	C205.050720,393.798737 211.036560,390.609375 215.664124,382.270935 
	C239.188004,339.883362 262.869629,297.583374 285.892029,254.918900 
	C287.875366,251.243439 290.223938,248.493713 294.759277,249.129349 
	C299.864624,249.844879 301.657867,253.943420 298.908600,258.844788 
	C294.426422,266.835571 289.704437,274.691528 285.182312,282.660370 
	C282.186584,287.939362 279.363129,293.316071 277.260437,299.286804 
	C280.985168,296.613129 284.621063,293.803772 288.452667,291.293182 
	C297.161835,285.586700 306.201721,280.609406 317.055267,280.706635 
	C329.672150,280.819641 336.628510,289.927216 333.590057,302.123047 
	C331.819824,309.228333 328.203461,315.342743 323.806000,321.071991 
	C322.605408,322.636200 321.401276,324.197754 320.184479,325.779053 
	C321.622650,327.303070 322.809937,326.225555 323.930847,325.827606 
	C343.465881,318.892548 360.843719,308.204498 376.937195,295.290161 
	C379.844849,292.956909 382.014374,290.019562 383.849823,286.818542 
	C385.256897,284.364594 387.325470,282.823914 390.050201,282.145447 
	C392.909027,281.433502 395.386505,282.130371 397.213898,284.447998 
	C399.051025,286.777985 398.467804,289.204315 396.882629,291.369141 
	C392.454224,297.416840 387.901123,303.373108 383.462006,309.413055 
	C379.900330,314.259125 376.755493,319.366516 374.583984,325.001923 
	C373.703217,327.287598 372.362305,329.687073 374.569305,331.993378 
	C376.615784,334.131958 378.997345,333.659485 381.532074,332.967316 
	C389.645691,330.751678 397.064880,327.031006 404.294495,322.842773 
	C418.461700,314.635559 431.748108,305.202240 444.186707,294.551575 
	C446.765259,292.343628 448.752930,289.723602 450.647522,286.981171 
	C451.992950,285.033661 453.492065,283.294556 455.856689,282.521393 
	C458.403992,281.688477 460.880829,281.688110 462.859131,283.655304 
	C464.907684,285.692413 464.831970,288.212158 463.463715,290.566864 
	C460.956024,294.882599 458.307465,299.117279 455.677368,303.360809 
	C454.406311,305.411591 453.043823,307.405762 452.248016,309.827362 
	C459.027527,304.507050 465.682037,299.016785 472.620087,293.911957 
	C480.280457,288.275696 488.212891,283.077881 497.880219,281.316986 
	C502.633972,280.451080 507.021973,280.797516 510.137024,284.768768 
	C513.446045,288.987274 512.681885,293.748352 510.079071,297.898163 
	C505.126709,305.794006 499.684723,313.381042 494.605103,321.199646 
	C492.601318,324.283905 488.870514,327.822479 491.623718,331.362579 
	C494.224609,334.706879 498.814301,332.810730 502.395721,331.620667 
	C517.935242,326.456848 531.566345,317.632446 544.427551,307.886292 
	C549.955688,303.697113 553.293396,296.771515 559.054077,292.329559 
	C569.210754,284.497833 580.099304,278.744354 593.411377,279.808441 
	C603.770996,280.636475 608.362000,288.708099 603.303711,296.797821 
	C602.084351,298.747894 600.491638,300.059662 598.147888,300.313660 
	C594.183838,300.743225 592.258789,298.282135 593.671082,294.593140 
	C595.502136,289.810211 594.392639,288.283478 589.220215,288.291962 
	C586.994568,288.295624 584.873230,288.809906 582.932800,289.727661 
	C569.733582,295.970520 559.995850,305.720795 554.656372,319.333282 
	C550.920288,328.858368 554.601990,333.788879 564.739380,333.936279 
	C575.916077,334.098846 585.953796,329.985870 595.740112,325.300781 
	C609.467529,318.729004 622.057251,310.286285 634.116638,301.031525 
	C636.444336,299.245117 637.875183,296.890198 639.245056,294.376801 
	C653.350952,268.496185 666.033386,241.799393 682.743286,217.404831 
	C690.572327,205.975281 698.942749,194.941727 711.028076,187.484726 
	C713.874512,185.728378 716.826843,184.212433 720.159668,183.573364 
	C727.181396,182.226944 731.971619,185.979523 732.326416,193.042038 
	C732.550781,197.507614 731.239868,201.573868 729.418091,205.556030 
	C721.609680,222.624222 709.538452,236.660660 697.200806,250.448013 
	C684.313660,264.849518 671.251892,279.114471 657.262024,292.461975 
	C650.956848,298.477600 647.270874,306.106293 642.257507,314.181702 
	C650.400085,307.481812 657.585144,301.197449 665.165894,295.433411 
	C673.267395,289.273407 681.790161,283.688293 691.949768,281.353546 
	C693.564636,280.982422 695.215637,280.632721 696.862671,280.559021 
	C707.725708,280.073151 712.834961,288.138794 707.732239,297.749054 
	C704.435303,303.958252 699.751953,309.232025 695.825439,315.018402 
	C693.955261,317.774475 692.041565,320.508148 690.323120,323.357849 
	C688.864746,325.776428 687.003296,328.582306 688.878418,331.239227 
	C690.983521,334.222046 694.382080,332.807037 697.211060,332.153900 
	C703.585754,330.682129 709.458252,327.842926 715.251770,324.899292 
	C725.064026,319.913940 734.455139,314.193756 743.771423,308.342712 
	C746.391052,306.697479 748.115356,304.279602 750.140076,302.078949 
	C762.653992,288.477264 777.464478,279.348328 796.521057,278.722412 
	C800.622986,278.587677 804.465332,279.667419 807.938293,281.819794 
	C812.387573,284.577179 813.856262,291.408081 810.937378,295.442261 
	C809.449463,297.498657 807.432007,298.631592 804.878357,297.872162 
	C802.370850,297.126373 801.940308,295.404297 802.291504,292.795166 
	C802.787659,289.108978 799.108093,286.926086 794.039307,287.632904 
	C785.670288,288.799988 778.640747,292.917938 772.223511,298.089966 
	C763.175903,305.382019 755.279236,313.661194 751.331665,324.943268 
	C750.575806,327.103516 749.439941,329.477020 751.523743,331.495758 
	C753.686462,333.590912 756.261414,332.801056 758.542908,331.771881 
	C773.420044,325.061035 786.768860,316.174255 797.627563,303.833557 
	C798.954346,302.325684 800.208984,300.759003 802.046387,299.848572 
	C805.704407,298.036072 809.340454,298.052856 812.095947,301.238983 
	C814.892761,304.472778 812.925964,307.404236 810.667419,310.105194 
	C806.392151,315.217957 801.991089,320.266998 799.387024,326.510986 
	C797.483276,331.075836 799.049255,333.227051 804.033997,332.795685 
	C809.239685,332.345184 814.071167,330.398560 818.801453,328.337585 
	C830.292358,323.330872 841.006592,316.920410 851.473572,310.057281 
	C853.982056,308.412476 857.235413,305.391754 859.744934,309.030029 
	C862.520630,313.054169 858.195862,314.868713 855.602905,316.604492 
	C840.763428,326.538574 825.654053,335.986847 808.107727,340.562164 
	C806.344055,341.022064 804.531189,341.345642 802.720947,341.566315 
	C790.965393,342.999329 785.440308,338.020325 785.753906,325.802246 
	C781.038696,328.917938 776.643982,332.011108 772.064087,334.800140 
	C766.348206,338.280945 760.401978,341.239868 753.473389,341.486511 
	C741.332703,341.918671 735.678284,335.107941 738.307190,323.135132 
	C738.408875,322.672150 738.378723,322.180176 738.435791,321.304962 
	C735.975586,321.887726 734.190979,323.290527 732.289001,324.470520 
	C722.499207,330.544342 712.382324,335.946045 701.400024,339.598846 
	C696.424805,341.253662 691.359680,342.119507 686.160950,341.272705 
	C676.525757,339.703400 672.066528,331.620239 676.056580,322.694794 
	C678.924072,316.280548 683.185974,310.679596 687.272827,304.994202 
	C690.346069,300.718781 693.717407,296.604492 695.911438,291.386871 
	C692.661926,289.385956 690.039856,290.814301 687.574585,291.844391 
	C676.668335,296.401489 667.403870,303.542938 658.636230,311.235504 
	C648.753906,319.905945 638.691650,328.435486 630.143494,338.513702 
	C628.241272,340.756378 625.875854,341.523621 623.034058,341.338593 
	C618.079590,341.016052 616.135498,338.152283 618.172363,333.592407 
	C620.454346,328.484070 623.059570,323.520081 625.866516,317.794891 
	C622.170288,318.439392 620.055847,320.346405 617.760437,321.816803 
	C603.075134,331.223846 587.829712,339.268646 570.257141,341.836487 
	C566.266418,342.419647 562.266357,342.519531 558.295593,342.052765 
	C545.385986,340.535248 540.731995,335.224365 539.849731,321.000671 
	C536.280701,322.286438 533.529968,324.750305 530.439331,326.615967 
	C519.303650,333.337830 508.212708,340.133911 494.858795,341.673920 
	C491.789032,342.027893 488.835297,341.682831 485.985962,340.830444 
	C478.708191,338.653320 475.542786,331.872589 478.271027,324.558472 
	C481.587982,315.666046 487.965485,308.682007 493.092010,300.914307 
	C495.131927,297.823486 498.111145,295.167664 498.505096,290.848175 
	C493.931580,289.835205 490.559448,292.233795 487.205292,294.135040 
	C478.181549,299.249908 470.073517,305.675598 462.310608,312.504852 
	C453.301971,320.429962 444.556458,328.644287 436.399384,337.462891 
	C435.498016,338.437347 434.594421,339.520538 433.467499,340.154449 
	C430.382568,341.889832 426.945282,342.434540 424.101715,340.088959 
	C421.187286,337.684937 422.587830,334.628632 424.084259,331.919739 
	C427.451935,325.823486 430.879486,319.760254 434.838837,312.690460 
	C424.017487,319.594574 414.607880,326.693207 404.186279,332.164764 
	C395.911621,336.509094 387.605682,340.759216 378.150665,341.965820 
	C365.407745,343.592041 358.198944,335.096588 362.097351,323.004150 
	C362.760468,320.947266 363.601105,318.947510 364.364655,316.923218 
	C364.655975,316.150879 364.961029,315.383667 365.453949,314.114105 
	C362.849396,314.179199 361.182526,315.631195 359.518433,316.698883 
	C342.920227,327.348572 325.066711,334.826508 305.592377,338.230621 
	C303.362701,338.620392 301.590179,339.816528 299.685181,340.810364 
	C291.889648,344.877075 283.708649,347.404938 274.815826,347.282959 
	C272.433868,347.250305 270.180054,346.816711 268.045563,345.793427 
	C265.579254,344.611115 264.115051,342.607330 264.084320,339.896576 
	C264.053558,337.187286 265.507019,335.163361 267.889740,333.878479 
	C270.288330,332.585114 272.922791,332.151459 275.598572,332.000732 
	C277.760345,331.878906 279.944519,332.033905 282.092438,331.811554 
	C288.070129,331.192810 294.545593,333.373047 299.795441,328.579742 
	C308.599731,320.541077 316.768860,312.019775 320.616394,300.371277 
	C321.684723,297.137054 321.891205,293.642853 319.087250,291.023254 
	C316.153137,288.282104 312.580719,288.880920 309.172791,289.949493 
	C297.784119,293.520447 288.702515,300.854828 279.547363,308.122009 
	C268.080658,317.224091 260.187378,329.080780 252.982941,341.547913 
	C245.231323,354.961914 237.326553,368.287384 229.544144,381.683746 
	C228.480469,383.514709 227.061371,385.223114 226.670914,388.416351 
	C266.465881,380.806244 306.173523,374.913605 346.531311,370.369873 
M154.798370,419.342926 
	C149.540543,422.196472 144.160706,424.849487 139.056290,427.955200 
	C132.913208,431.692932 127.323380,436.168945 123.538353,442.474548 
	C117.685219,452.225433 122.370628,461.038727 133.672226,461.778259 
	C142.553955,462.359406 150.353256,459.345337 157.681656,454.786499 
	C170.295822,446.939453 180.465134,436.495117 189.144104,424.555237 
	C193.869583,418.054230 198.647003,411.560242 202.639755,403.620575 
	C185.831909,407.440857 170.378510,412.368591 154.798370,419.342926 
M679.029785,247.478027 
	C674.887024,255.093811 670.744202,262.709595 666.601379,270.325378 
	C671.275452,266.727936 675.106140,262.591827 678.823486,258.356262 
	C692.660889,242.589722 706.623596,226.909439 716.848877,208.398544 
	C719.235107,204.078827 721.343018,199.620743 721.613159,193.600693 
	C715.242004,196.466995 710.889954,200.610748 706.950867,205.293716 
	C696.183960,218.093964 687.681396,232.398193 679.029785,247.478027 
z"/>
<path fill="#000000" opacity="1.000000" stroke="none" 
	d="
M408.723999,262.261719 
	C404.659119,262.607330 401.971954,261.047150 401.088287,257.549988 
	C399.903839,252.862549 401.990631,248.991959 405.516754,246.104919 
	C408.217865,243.893356 411.484406,243.071274 414.812164,245.026627 
	C418.063446,246.937027 418.917786,251.908615 416.728455,256.248932 
	C415.144043,259.389954 412.577148,261.385895 408.723999,262.261719 
z"/>
</svg>