<svg xmlns="http://www.w3.org/2000/svg" viewBox="0 0 1254 1254" fill="currentColor">
<g transform="translate(0,1254) scale(0.1,-0.1)">
<path d="M6288 9958 c-47 -76 -72 -171 -72 -273 0 -135 30 -221 130 -376 157 -242 176 -460 56 -645 -56 -85 -130 -149 -277 -239 -240 -148 -366 -302 -411 -501 -21 -98 -15 -248 16 -349 55 -178 194 -364 356 -475 60 -42 166 -101 171 -97 2 3 -26 35 -62 73 -203 211 -292 461 -239 668 46 180 152 301 399 456 191 120 313 235 369 350 94 193 76 399 -53 588 -23 35 -94 116 -156 181 -130 135 -187 217 -215 309 -24 78 -26 190 -5 281 17 70 15 83 -7 49z"/>
<path d="M7187 8516 c-9 -100 -49 -222 -98 -295 -77 -116 -130 -151 -452 -300 -136 -63 -232 -163 -282 -294 -50 -134 -39 -273 35 -421 38 -77 127 -203 136 -193 3 2 -7 48 -21 102 -75 290 12 493 280 649 55 33 127 75 160 94 86 51 193 163 232 243 60 121 77 263 52 420 -16 93 -34 91 -42 -5z"/>
<path d="M4945 7025 c-317 -29 -537 -91 -644 -181 -76 -63 -91 -163 -37 -244 32 -48 132 -116 229 -154 310 -123 930 -192 1494 -166 449 20 761 63 1116 153 163 42 151 44 -113 22 -251 -22 -905 -30 -1180 -16 -809 42 -1350 182 -1256 325 69 107 503 200 1074 232 68 4 120 10 115 15 -11 11 -339 29 -512 28 -80 -1 -209 -7 -286 -14z"/>
<path d="M8070 6795 c-211 -45 -420 -169 -543 -322 -67 -83 -131 -183 -123 -191 4 -3 34 23 69 57 170 172 374 262 602 264 126 1 205 -16 305 -66 74 -37 175 -127 218 -195 173 -271 37 -641 -293 -798 -86 -41 -199 -71 -327 -86 -54 -6 -98 -15 -98 -18 0 -10 65 -28 150 -41 102 -16 285 -6 378 21 343 97 553 342 569 660 6 132 -12 222 -66 334 -85 173 -228 295 -425 362 -69 23 -101 27 -216 30 -89 2 -157 -1 -200 -11z"/>
<path d="M7729 6164 c-242 -43 -439 -174 -527 -350 -56 -110 -67 -273 -29 -404 12 -41 26 -75 31 -75 5 0 17 32 26 70 48 200 164 371 330 485 34 24 34 24 -11 -30 -118 -140 -192 -312 -201 -470 l-3 -55 40 -3 c108 -10 250 51 346 147 94 94 131 175 169 366 30 151 54 234 84 293 9 17 16 33 16 37 0 10 -196 3 -271 -11z"/>
<path d="M4584 5811 c55 -623 532 -1151 1194 -1322 343 -88 745 -76 1067 32 344 117 637 336 812 608 47 73 115 209 111 221 -2 6 -35 -26 -73 -71 -276 -319 -647 -536 -1070 -626 -118 -24 -150 -27 -345 -28 -232 0 -282 7 -487 65 -517 149 -940 542 -1158 1076 -24 58 -46 109 -50 112 -4 4 -5 -26 -1 -67z"/>
<path d="M5738 4314 c-38 -25 -68 -50 -68 -54 0 -5 36 -22 80 -39 252 -97 600 -116 870 -47 96 24 240 76 240 86 -1 3 -33 27 -71 53 l-71 48 -96 -25 c-248 -65 -485 -60 -792 18 -19 5 -40 -3 -92 -40z"/>
</g>
</svg>
